<svg version="1.1" id="Camada_1" xmlns="http://www.w3.org/2000/svg" x="0" y="0" viewBox="0 0 1279.8 1500" style="enable-background:new 0 0 1279.8 1500" xml:space="preserve"><style>.st0{fill-rule:evenodd;clip-rule:evenodd;fill:#fff}.st1{fill:#f6d330}.st1,.st2{fill-rule:evenodd;clip-rule:evenodd}</style><path class="st0" d="m440 377.7-2.5-168.1 100-58.6L686.1 51l61-2.5 63.5 68.3 34.2 226.8-46.4 82.9-192.6-5L440 377.7z"/><path class="st0" d="m242.5 858.2 51.1-143.9 100-119.4 51.1-102.5 22.1-34 365.6-56.1L905.6 517l204.8 490-70.8 87.6-185.4 309.9-43.7 9.7-339 9.7L235 1160.6l-39-219.4 46.5-83z"/><path class="st1" d="M710.6 485.1s-12.2-2.5 21.9-9.9c34.2-7.2 34.4-14.4 43.9-24.3 9.7-9.7 14.7-31.8 14.7-56.1s12.2-95.1 9.7-114.5c-2.3-19.6-43.9-92.6-60.8-102.5-17.1-9.7-207.2-26.8-207.2-26.8l-58.6 46.4-43.9 41.3 9.9 131.8s-12.4 41.4-9.9 58.4c2.5 17.1 27 36.7 36.7 46.4 9.7 9.9 46.2 49.1 58.4 61 12.4 12.2 14.8 24.3 43.9 14.6 29.3-9.7 46.4-9.7 68.5-26.8 21.7-17.1 72.8-39 72.8-39z"/><path class="st0" d="M598.4 277.9c7.4-19.6 17.1-56.1 34-68.3 17.1-12.2 53.8-22.2 75.7-19.6 22.1 2.5 63.3 24.3 73.2 41.4 9.7 17.1 9.7 85.4 9.7 85.4l-5 56.1-34-2.5-73.2-29.3h-12.2s-12.2 4.8-48.9-14.6c-36.4-19.5-26.7-29.1-19.3-48.6zm-77.9 53.6c1.1-1.1 3.4-2.7 6.5-4.4 14.8-8.2 47.1-20.2 47.1-20.2s31.6-80.2 4.8-112c-26.6-31.7-85.2-26.8-85.2-26.8s-63.3 36.5-61 51.1c2.5 14.6 4.9 65.8 7.4 73 2.3 7.4 12.2 85.4 12.2 85.4l21.9-9.7 31.8-24.3c-.2.1 7.2-4.7 14.5-12.1z"/><path class="st1" d="m986.1 1067.9 35.4 2.7c5.1.4 10.3.6 15.4.8 26.2.9 49.3 4.9 73.8 8 16.2 1.9 43 12.2 44.9 32.5 2.7 30.1-6.1 63.1 19.4 75.5 26.1 17.7 84.2 58.6 84.2 58.6l17.1 31.6-51.1 46.4L974 1475l-114.5-39v-92.6l4.8-124.3-12.2-112.2 19.4-43.9 48.9-14.6 65.7 19.5zm-726.3-54.8c-2.5-2.3-47 10.8-49.8 11.4-20.7 3-47 17.3-47 39.9 0 11.6-.9 23.6-6.3 34-4.2 8.2-13.7 20.5-13.5 23.2-3.2 8.9-9.1 21.5-17.3 26.8-9.5 1-51.7 4.8-51.7 4.8H37.5l-21.9 26.6 17.1 70.9-5 55.9-16.9 63.5 41.3 21.9 312.2 82.9L435 1453l36.5-90.3-7.4-34-34-68.3c.1.1-148.3-215.3-170.3-247.3z"/><path class="st2" d="M418.7 247.8C413.6 77.7 480 2.5 617.8.1c137.7-2.7 224 70 241.7 165.2 17.5 95.1 7.4 220.4 42.6 285.4 35 65.2 57.4 115.2 117.7 190.3 60.1 75.1 97.5 151.5 115 244.3 17.7 92.6 27.6 136.3-17.5 184.1-45.1 47.5-125.1 125.1-185.2 37.5-30.2-43.9-33.5-98.5 17.5-110.1 32.5-7.6 55.9-5.1 80 7.4 24.3 12.6 30 6.6.9-15-29.3-21.7-35.2-1.7-25.1-36.7 10.1-35 23.2-97.9-4.2-167.1-12.7-31.9-55.9-119.4-96.4-140.9-3.6-2.1-14.3-6.5-7 2.5 10.8 13.5 69.2 99.4 85.7 150.6 17.7 55 20.2 107.4 11 140.7-9.1 33.5-25.1 46.8-44.3 46.8s-36.7 9.1-36.7-35c0-44.3 4.6-111-19.2-167.5-23.8-56.3-52.7-95.1-58.9-118.8-6.1-23.8-20-87.7-48.7-124-28.9-36.3-41.5-60.1-26.4-101.5 15-41.3 3.8-52.5-26.2-61.2-30-8.7-70.2-21.3-80-41.4-10.1-20-3.8-60.1 18.6-70 22.6-10.1 60.1 3.6 61.4 32.5 1.3 28.7-12.6 43.7-8.7 50 3.8 6.3 23.8 16.4 33.8 5.1 9.9-11.4 12.6-46.4 2.5-78.9-10.1-32.5-15-55.1-51.3-62.6-36.3-7.6-52.7-5.1-70.2 17.5-17.5 22.4-25.1 58.8-20 85.2 4.9 26.2-5.1 11.2-22.6 9.9-17.5-1.1-12.5-2.5-30-1.1-17.5 1.1-11.2-10.1-12.6-28.9-1.1-18.8-3.6-57.6-30-72.6-26.2-15-71.3 2.5-70.2 65.2 1.3 62.6 22.6 92.6 35.2 70 12.5-22.4 6.3-11.2-6.3-21.3-12.5-9.9-21.3-51.3-7.6-63.7 13.9-12.5 30-12.5 39-5.1 8.7 7.6 22.4 32.7 20 48.9-2.5 16.4-3.8 17.5-20 28.9-16.4 11.2-22.6 21.3-41.4 33.7-18.8 12.5-26.2 41.5-11.2 48.9 15 7.6 16.4 6.3 28.7 25.1 12.5 18.8 33.8 27.6 86.5 18.8 52.5-8.7 74.2-21.3 113.9-35.2 28.9-9.9 18.8-8.7 28.9-20 9.9-11.2 26.2 4.9 11.2 15s-48.9 20-74 28.7c-24.9 8.9-53.8 33.8-106.3 31.4-52.7-2.5-16.4-1.3-32.7-2.5-16.2-1.3-23.8 1.1-6.3 13.7 17.7 12.6 16.4 16.4 31.4 21.3 15 5.1 35 5.1 58.9-3.6 23.8-8.9 83.9-35.2 102.7-47.7 18.6-12.5 33.7 3.8 15 16.4-18.8 12.5-24 8.7-41.5 20-17.5 11.4-50 30-71.3 50.2-21.3 20-26.2 21.3-52.7 22.4-26.2 1.3-42.6-26.2-53.8-38.8-11.2-12.6-10.1-20-23.8-35-13.7-15-15-11.4-17.5 4.9-2.5 16.4-21.3 57.6-37.6 85.2-16.2 27.6-17.5 61.4-15 85.2 2.5 23.8-3.8 26.2-22.4 53.8-18.8 27.6-50.2 108.9-55.1 135.2-5 26.2-11.2 80.2-8.7 111.4 2.5 31.4-6.3 37.6-28.9 16.4-22.4-21.3-30.1-45.1-28.7-76.4 1.1-26.8 4.8-45.6 8.2-55.5s.2-16.7-7-4.6c-15.4 26.6-16.2 72.6-12.4 89 3.6 16.2 4.9 45.1 46.2 83.8 41.4 38.8 101.5 92.6 151.5 128.9 50.2 36.3 67.7 81.4-6.3 113.9 46.4 62.7 71.5 95.3 51.3 136.5 41.4-23.8 25.5-79.9 5.5-94.9-20.2-15-8-26.6 9.5-15.2 17.5 11.2 23.8 33.7 92.8 32.5 68.8-1.3 143-8.2 184.4-68.4 41.3-60.1 49.2-9.5 39.2 25.7-9.9 35-34.6 114.1 4.2 106.7 5-46.4 16.4-86.5 16.4-136.5 0-50.2 5-74.3 1.2-147-3.8-70 26.4-74.7 57.6-74.7 31.4 0 21.3 20.2 1.3 18.8-20.2-1.3-41.3 6.3-42.6 57.6-1.3 51.3 0 46.4 8.7 92.6 8.7 46.4 10.1 60.1 2.5 111.4-7.4 51.3-13.7 78.9 20.2 110.3 33.7 31.4 85 22.4 111.4 2.5 26.2-20 76.2-66.3 121.3-81.4 45.3-15 92.8-26.2 117.9-51.3 24.9-25.1 18.6-42.6-7.6-56.3-26.2-13.9-51.3-7.6-71.3-30-20.2-22.6-30.1-72.6-22.6-99.1 7.6-26.2 16.4-15 16.4 3.8s1.2 36.3 20 60.1c18.8 23.8 36.3 35.2 66.4 53.8 30 18.8 48.9 48.9 11.2 75.3-37.5 26.2-58.8 41.3-90.1 53.8-31.2 12.6-82.5 42.6-113.9 73.8-31.4 31.4-48.9 58.9-110.3 58.9-61.2 0-89.4-14.8-107.6-51.3-12.6-25.1-18.8-21.3-47.5-22.6-28.9-1.1-125.3-2.5-200.4-1.1-75.1 1.1-100.2 13.7-134 41.3-33.7 27.6-46.2 48.9-110.1 27.6-63.9-21.3-97.7-45.1-192.8-63.9-95.3-18.8-43.9-10.1-101.5-22.6-57.6-12.4-53.8-39.9-46.2-62.6 7.4-22.4 26.2-57.6 9.9-103.8-16.4-47-10.1-94.5 33.6-94.5 43.9 0 85.2 8.7 102.7-48.9 17.5-57.6 22.6-12.5 17.5 2.5-4.9 15-7.4 56.3-46.2 62.6-38.8 6.3-47.5-2.5-71.5-2.5-23.8 0-33.7 16.4-21.3 43.9 12.5 27.6 26.4 56.3 24 80-2.7 23.8-5.1 32.5-22.6 55.1-17.5 22.4-15 33.8 16.4 41.3 31.2 7.6 87.7 22.6 140.1 35.2 52.7 12.3 56.5 12.3 147.7 36.3 91.5 23.8 116.6-18.8 124-70.2 7.6-51.3-27.6-100.2-60.1-149.1s-67.5-105.1-110.1-156.5c-42.6-51.3-67.7-55.1-89-43.9-21.3 11.4-25.1 8.9-26.2-20-1.3-28.7-3.8-47.5 20-90.1 23.8-42.6 45.1-89 70.2-160.3 25.1-71.3 47.5-85.2 90.1-146.6 42.6-61.2 23.8-37.5 53.8-78.7 30-41.4 21.3-33.8 18.8-99.1-2.6-64.8-5.1-102.5-7.6-187.7zM299.1 757c6.5 7.8 15.6-10.6 25.1-17.7 8.3-7.5 12.2-18.8 10.3-29.9-.9-5.9-10.5-4-12.4-1.9-5.9 5.9-4.6 15.4-8.7 23.6-4.7 9.9-20.7 17.9-14.3 25.9zm538.3-261.6c13.5 11.4 21.9 21.3 29.3 4.4 7.6-16.9 7.6-23.8-10.6-30.6-18.1-7-26.2-14.4-34.4-23.8-8.2-9.5-11 6.7-4.4 22.4 8.1 19.4 12.9 21.7 20.1 27.6zM555.3 340c-9.3-1.9-20.5-1.1-26.8 6.3-2.5 2.5-1.3 9.5 3 11.4 5.7 2.5 9.5-3.2 10.7-7.6.6-1.9 1.3-4.4 3.2-4.9 2.5-1.3 6.1-.2 8.7-1.3 3.1-1.2 1.9-3.9 1.2-3.9zm44.3 1.8c3.8 5.7 10.7 5.7 16.4 8.2 3 1.3 9.3 3.2 11.2-1.1 4.4-13.9-14.4-9.5-23.2-9.5-2-.1-6.3-.7-4.4 2.4zm91.2-60.7c8.6.4 20.2 15.6 21.3 33.3.2 2.7 7.4 2.5 8.9-.2 4-7 1.2-14.8-.8-23.2-1.5-6.8-9.7-13.9-16.5-16.9-4.6-2.3-9.3-3-15.4-2.3-1.5.7-6.8 8.7 2.5 9.3zm-186.5-4.4c-7.8.6-4.9 6.6-4.6 11.6 10.8 6.1 11.8 19.8 14.1 30.6.2 4.2 6.5 2.3 7 1 4.8-8.7-1.1-18.6-3.2-28.9-1.9-5.3-5.5-11.4-10.5-15-.7-.8-2 .7-2.8.7zM743.5 84.9c-7.8-6.3-20-8.7-23.6 1.5-3.8 8.7-2.3 17.7-4.4 27.2 0 3-3.8 3.8-5.9 6.6-3 3.6-2.3 8.2-.8 9.5 7.2 7.4 20.5-7.2 30.2-12.4 7.2-4.6 17.7 1.3 25.7-3.8 2.3-1.5 3-5.1.8-8-5.1-8.8-14-14-22-20.6z"/><path class="st2" d="M969 1080.4c1.2-5.1 3.8-15.2 8.7-16.7 1.7-.6 3.2.2 3.8 1.9 1.1 3.2-2.3 21.7-.9 25.9 1.5 4.4 6.6 3.8 10.3 2.7 8.6-2.9 13.5-12.9 13.1-13.9 0-.4-.2-.4-.6-.4-1.3.4-2.5 5.1-6.3 6.3-2.5.8-4.4.4-5.1-2.1-.8-2.7 2.5-21.7.9-26.1-1.3-4.4-5.7-5.5-9.9-4.2-9.3 3-13.3 17.3-15.8 25.7h-.2l1.3-19.6-11.6 3.8-.6 40.5 10.8-3.6c.4-7 .8-15 2.1-20.2zm50.2 4.4c9.3-3 13.5-14.1 13.1-15.4-.2-.4-.4-.6-.8-.6-.8.4-2.5 6.7-7.8 8.4-2.3.8-4.4.2-4.9-1.3-.8-2.3-.2-6.3-.2-9.7l.4-18.3 12.7-4.2-.2-4.4-12.7 4.2.6-17.3-11.4 6.5-.6 38.6c0 4.2-.4 7.8.4 9.7 1.5 5 6.7 5.5 11.4 3.8z"/></svg>